G04*
G04 #@! TF.GenerationSoftware,Altium Limited,Altium Designer,26.2.0 (7)*
G04*
G04 Layer_Color=16711935*
%FSLAX44Y44*%
%MOMM*%
G71*
G04*
G04 #@! TF.SameCoordinates,028F03B8-92F7-4845-8BB4-7E4701996D9D*
G04*
G04*
G04 #@! TF.FilePolarity,Negative*
G04*
G01*
G75*
%ADD42R,1.8032X1.8032*%
%ADD43C,1.8032*%
%ADD44R,1.9032X1.9032*%
%ADD45C,1.9032*%
%ADD46C,2.2532*%
%ADD47C,0.6500*%
G04:AMPARAMS|DCode=48|XSize=1mm|YSize=2.1mm|CornerRadius=0.5mm|HoleSize=0mm|Usage=FLASHONLY|Rotation=90.000|XOffset=0mm|YOffset=0mm|HoleType=Round|Shape=RoundedRectangle|*
%AMROUNDEDRECTD48*
21,1,1.0000,1.1000,0,0,90.0*
21,1,0.0000,2.1000,0,0,90.0*
1,1,1.0000,0.5500,0.0000*
1,1,1.0000,0.5500,0.0000*
1,1,1.0000,-0.5500,0.0000*
1,1,1.0000,-0.5500,0.0000*
%
%ADD48ROUNDEDRECTD48*%
G04:AMPARAMS|DCode=49|XSize=1mm|YSize=1.8mm|CornerRadius=0.5mm|HoleSize=0mm|Usage=FLASHONLY|Rotation=90.000|XOffset=0mm|YOffset=0mm|HoleType=Round|Shape=RoundedRectangle|*
%AMROUNDEDRECTD49*
21,1,1.0000,0.8000,0,0,90.0*
21,1,0.0000,1.8000,0,0,90.0*
1,1,1.0000,0.4000,0.0000*
1,1,1.0000,0.4000,0.0000*
1,1,1.0000,-0.4000,0.0000*
1,1,1.0000,-0.4000,0.0000*
%
%ADD49ROUNDEDRECTD49*%
%ADD50C,1.3000*%
%ADD51R,1.3000X1.3000*%
%ADD52C,2.0000*%
%ADD53C,2.4500*%
%ADD54C,2.8000*%
G04:AMPARAMS|DCode=55|XSize=4.2032mm|YSize=2.0032mm|CornerRadius=0.5516mm|HoleSize=0mm|Usage=FLASHONLY|Rotation=180.000|XOffset=0mm|YOffset=0mm|HoleType=Round|Shape=RoundedRectangle|*
%AMROUNDEDRECTD55*
21,1,4.2032,0.9000,0,0,180.0*
21,1,3.1000,2.0032,0,0,180.0*
1,1,1.1032,-1.5500,0.4500*
1,1,1.1032,1.5500,0.4500*
1,1,1.1032,1.5500,-0.4500*
1,1,1.1032,-1.5500,-0.4500*
%
%ADD55ROUNDEDRECTD55*%
G04:AMPARAMS|DCode=56|XSize=4.2032mm|YSize=2.0032mm|CornerRadius=0.5516mm|HoleSize=0mm|Usage=FLASHONLY|Rotation=270.000|XOffset=0mm|YOffset=0mm|HoleType=Round|Shape=RoundedRectangle|*
%AMROUNDEDRECTD56*
21,1,4.2032,0.9000,0,0,270.0*
21,1,3.1000,2.0032,0,0,270.0*
1,1,1.1032,-0.4500,-1.5500*
1,1,1.1032,-0.4500,1.5500*
1,1,1.1032,0.4500,1.5500*
1,1,1.1032,0.4500,-1.5500*
%
%ADD56ROUNDEDRECTD56*%
%ADD57C,1.4732*%
D42*
X1263679Y717550D02*
D03*
D43*
X1213679D02*
D03*
D44*
X980440Y632460D02*
D03*
X897890Y633730D02*
D03*
D45*
X980440Y581660D02*
D03*
Y607060D02*
D03*
X897890Y608330D02*
D03*
Y582930D02*
D03*
D46*
X627380Y444360D02*
D03*
Y579260D02*
D03*
X1038720Y646430D02*
D03*
X1173620D02*
D03*
D47*
X1722370Y482290D02*
D03*
Y424490D02*
D03*
D48*
X1717370Y496590D02*
D03*
Y410190D02*
D03*
D49*
X1759170Y496590D02*
D03*
Y410190D02*
D03*
D50*
X1626870Y489820D02*
D03*
D51*
Y439820D02*
D03*
D52*
X1670793Y652677D02*
D03*
X1706147Y617323D02*
D03*
X1688470Y635000D02*
D03*
X1728470D02*
D03*
X1670793Y617323D02*
D03*
X1706147Y652677D02*
D03*
D53*
X1688470Y560000D02*
D03*
Y710000D02*
D03*
D54*
X1728470Y560000D02*
D03*
Y710000D02*
D03*
D55*
X627380Y379730D02*
D03*
Y321730D02*
D03*
D56*
X675380Y349730D02*
D03*
D57*
X1408430Y341630D02*
D03*
X1626870Y383540D02*
D03*
X1750060Y513080D02*
D03*
X1466850Y589280D02*
D03*
X911860Y365760D02*
D03*
X731372Y417830D02*
D03*
X1381760Y501650D02*
D03*
X911860Y544830D02*
D03*
X1694180Y377190D02*
D03*
Y429260D02*
D03*
X1696720Y477520D02*
D03*
X1492250Y535940D02*
D03*
X1537970Y505460D02*
D03*
X1441450Y497840D02*
D03*
X1414780Y535940D02*
D03*
X854710Y552450D02*
D03*
X1022350Y488950D02*
D03*
X885190Y439420D02*
D03*
X800100Y535940D02*
D03*
X706120Y476250D02*
D03*
X854710Y622300D02*
D03*
M02*
