G04*
G04 #@! TF.GenerationSoftware,Altium Limited,Altium Designer,26.2.0 (7)*
G04*
G04 Layer_Physical_Order=1*
G04 Layer_Color=255*
%FSLAX44Y44*%
%MOMM*%
G71*
G04*
G04 #@! TF.SameCoordinates,028F03B8-92F7-4845-8BB4-7E4701996D9D*
G04*
G04*
G04 #@! TF.FilePolarity,Positive*
G04*
G01*
G75*
%ADD15C,0.2540*%
%ADD16R,3.4500X1.4500*%
%ADD17R,1.0500X1.4500*%
%ADD18R,0.8000X0.9000*%
%ADD19R,0.5500X0.6000*%
%ADD20R,3.0500X3.6800*%
%ADD21R,1.6500X3.6800*%
%ADD22R,1.1500X0.3000*%
%ADD23R,1.1500X0.6000*%
%ADD24R,1.9000X4.1500*%
%ADD25R,0.9100X2.1600*%
%ADD26R,10.8000X10.4100*%
%ADD27R,0.5000X0.4000*%
%ADD28R,3.3000X2.5000*%
%ADD29R,1.3432X1.8582*%
%ADD30R,2.8062X1.4049*%
%ADD31R,1.1350X1.0621*%
%ADD32R,2.0000X0.6000*%
%ADD33R,1.5562X1.5781*%
%ADD34R,0.9000X1.2000*%
%ADD35R,1.2500X1.0000*%
G04:AMPARAMS|DCode=36|XSize=0.6mm|YSize=1.9mm|CornerRadius=0.051mm|HoleSize=0mm|Usage=FLASHONLY|Rotation=90.000|XOffset=0mm|YOffset=0mm|HoleType=Round|Shape=RoundedRectangle|*
%AMROUNDEDRECTD36*
21,1,0.6000,1.7980,0,0,90.0*
21,1,0.4980,1.9000,0,0,90.0*
1,1,0.1020,0.8990,0.2490*
1,1,0.1020,0.8990,-0.2490*
1,1,0.1020,-0.8990,-0.2490*
1,1,0.1020,-0.8990,0.2490*
%
%ADD36ROUNDEDRECTD36*%
%ADD47C,0.6500*%
G04:AMPARAMS|DCode=48|XSize=1mm|YSize=2.1mm|CornerRadius=0.5mm|HoleSize=0mm|Usage=FLASHONLY|Rotation=90.000|XOffset=0mm|YOffset=0mm|HoleType=Round|Shape=RoundedRectangle|*
%AMROUNDEDRECTD48*
21,1,1.0000,1.1000,0,0,90.0*
21,1,0.0000,2.1000,0,0,90.0*
1,1,1.0000,0.5500,0.0000*
1,1,1.0000,0.5500,0.0000*
1,1,1.0000,-0.5500,0.0000*
1,1,1.0000,-0.5500,0.0000*
%
%ADD48ROUNDEDRECTD48*%
G04:AMPARAMS|DCode=49|XSize=1mm|YSize=1.8mm|CornerRadius=0.5mm|HoleSize=0mm|Usage=FLASHONLY|Rotation=90.000|XOffset=0mm|YOffset=0mm|HoleType=Round|Shape=RoundedRectangle|*
%AMROUNDEDRECTD49*
21,1,1.0000,0.8000,0,0,90.0*
21,1,0.0000,1.8000,0,0,90.0*
1,1,1.0000,0.4000,0.0000*
1,1,1.0000,0.4000,0.0000*
1,1,1.0000,-0.4000,0.0000*
1,1,1.0000,-0.4000,0.0000*
%
%ADD49ROUNDEDRECTD49*%
%ADD50C,1.3000*%
%ADD51R,1.3000X1.3000*%
%ADD52C,2.0000*%
%ADD53C,2.4500*%
%ADD54C,2.8000*%
%ADD58C,0.7620*%
%ADD59C,0.3810*%
%ADD60C,1.2700*%
%ADD61C,1.7780*%
%ADD62C,0.7874*%
%ADD63C,0.5842*%
%ADD64C,1.0160*%
%ADD65C,0.6350*%
%ADD66R,1.6000X1.6000*%
%ADD67C,1.6000*%
%ADD68R,1.7000X1.7000*%
%ADD69C,1.7000*%
%ADD70C,2.0500*%
G04:AMPARAMS|DCode=71|XSize=4mm|YSize=1.8mm|CornerRadius=0.45mm|HoleSize=0mm|Usage=FLASHONLY|Rotation=180.000|XOffset=0mm|YOffset=0mm|HoleType=Round|Shape=RoundedRectangle|*
%AMROUNDEDRECTD71*
21,1,4.0000,0.9000,0,0,180.0*
21,1,3.1000,1.8000,0,0,180.0*
1,1,0.9000,-1.5500,0.4500*
1,1,0.9000,1.5500,0.4500*
1,1,0.9000,1.5500,-0.4500*
1,1,0.9000,-1.5500,-0.4500*
%
%ADD71ROUNDEDRECTD71*%
G04:AMPARAMS|DCode=72|XSize=4mm|YSize=1.8mm|CornerRadius=0.45mm|HoleSize=0mm|Usage=FLASHONLY|Rotation=270.000|XOffset=0mm|YOffset=0mm|HoleType=Round|Shape=RoundedRectangle|*
%AMROUNDEDRECTD72*
21,1,4.0000,0.9000,0,0,270.0*
21,1,3.1000,1.8000,0,0,270.0*
1,1,0.9000,-0.4500,-1.5500*
1,1,0.9000,-0.4500,1.5500*
1,1,0.9000,0.4500,1.5500*
1,1,0.9000,0.4500,-1.5500*
%
%ADD72ROUNDEDRECTD72*%
%ADD73C,1.2700*%
G36*
X651510Y392430D02*
X659130D01*
Y363220D01*
X595630D01*
Y392430D01*
X603250D01*
Y459740D01*
X651510D01*
Y392430D01*
D02*
G37*
%LPC*%
G36*
X629064Y457150D02*
X628650D01*
Y445630D01*
X640170D01*
Y446044D01*
X639298Y449297D01*
X637615Y452213D01*
X635233Y454594D01*
X632317Y456278D01*
X629064Y457150D01*
D02*
G37*
G36*
X626110D02*
X625696D01*
X622443Y456278D01*
X619527Y454594D01*
X617146Y452213D01*
X615462Y449297D01*
X614590Y446044D01*
Y445630D01*
X626110D01*
Y457150D01*
D02*
G37*
G36*
X640170Y443090D02*
X628650D01*
Y431570D01*
X629064D01*
X632317Y432442D01*
X635233Y434125D01*
X637615Y436507D01*
X639298Y439423D01*
X640170Y442676D01*
Y443090D01*
D02*
G37*
G36*
X626110D02*
X614590D01*
Y442676D01*
X615462Y439423D01*
X617146Y436507D01*
X619527Y434125D01*
X622443Y432442D01*
X625696Y431570D01*
X626110D01*
Y443090D01*
D02*
G37*
G36*
X642880Y391331D02*
X628650D01*
Y381000D01*
X649981D01*
Y384230D01*
X649739Y386068D01*
X649029Y387780D01*
X647901Y389251D01*
X646430Y390379D01*
X644718Y391089D01*
X642880Y391331D01*
D02*
G37*
G36*
X626110D02*
X611880D01*
X610042Y391089D01*
X608330Y390379D01*
X606859Y389251D01*
X605731Y387780D01*
X605021Y386068D01*
X604779Y384230D01*
Y381000D01*
X626110D01*
Y391331D01*
D02*
G37*
G36*
X649981Y378460D02*
X628650D01*
Y368129D01*
X642880D01*
X644718Y368371D01*
X646430Y369081D01*
X647901Y370209D01*
X649029Y371680D01*
X649739Y373392D01*
X649981Y375230D01*
Y378460D01*
D02*
G37*
G36*
X626110D02*
X604779D01*
Y375230D01*
X605021Y373392D01*
X605731Y371680D01*
X606859Y370209D01*
X608330Y369081D01*
X610042Y368371D01*
X611880Y368129D01*
X626110D01*
Y378460D01*
D02*
G37*
%LPD*%
D15*
X674110Y343834D02*
Y360568D01*
X626110Y322580D02*
X637110D01*
X1708870Y421390D02*
X1711620D01*
X852680Y481330D02*
X852980D01*
X854710Y483060D01*
X1692210Y447610D02*
Y457770D01*
X1653540Y408940D02*
X1692210Y447610D01*
X1653540Y365760D02*
Y408940D01*
X1692210Y457770D02*
X1705100Y470660D01*
X1711390D02*
X1711620Y470890D01*
X1705100Y470660D02*
X1711390D01*
X1314450Y454200D02*
X1319112Y458862D01*
X650880Y336350D02*
X666626D01*
X637110Y322580D02*
X650880Y336350D01*
X666626D02*
X674110Y343834D01*
X896620Y364490D02*
X910590D01*
X892810Y368300D02*
X896620Y364490D01*
X910590D02*
X911860Y365760D01*
X892810Y368300D02*
Y375920D01*
X731372Y417830D02*
X757680D01*
X892810Y526046D02*
X893533Y526770D01*
Y535393D01*
X902970Y544830D01*
X911860D01*
X1672388Y363220D02*
X1672563Y363395D01*
X1680385D01*
X1694180Y377190D02*
X1708150Y363220D01*
X1680385Y363395D02*
X1694180Y377190D01*
X1708150Y363220D02*
X1716506D01*
X828040Y443230D02*
X852680D01*
X723900Y371670D02*
X806450D01*
Y421640D01*
X828040Y443230D01*
X1097620Y363560D02*
Y511810D01*
X806450Y371670D02*
X860230D01*
X1653540Y365760D02*
X1656080Y363220D01*
X1711620Y440890D02*
X1711850Y440660D01*
X1717692D01*
X1732814Y425538D01*
Y363220D02*
Y425538D01*
X1530970Y465750D02*
X1537970D01*
X1173620Y625970D02*
X1173779Y625811D01*
X1045210Y572770D02*
X1080750D01*
X1023260Y550820D02*
X1045210Y572770D01*
X1083310Y349250D02*
X1097620Y363560D01*
X1066800Y382270D02*
Y452015D01*
X1040130Y355600D02*
X1066800Y382270D01*
X1022350Y488950D02*
X1035050D01*
X1041760Y495660D01*
Y511810D01*
X946150Y444500D02*
X959600Y457950D01*
X920202Y444500D02*
X946150D01*
X959600Y457950D02*
X980440D01*
X893259Y417830D02*
X919929Y444500D01*
X852680Y417830D02*
X893259D01*
X883920Y355600D02*
X1040130D01*
X932180Y417830D02*
Y435770D01*
X922020Y407670D02*
X932180Y417830D01*
X907560Y407670D02*
X922020D01*
X896040Y396150D02*
X907560Y407670D01*
X895540Y396150D02*
X896040D01*
X892810Y393420D02*
X895540Y396150D01*
X892810Y392920D02*
Y393420D01*
X1023260Y509119D02*
Y550820D01*
X1043940Y511810D02*
X1075690D01*
X859180Y405130D02*
X872490Y391820D01*
X852680Y405130D02*
X859180D01*
X872490Y367030D02*
Y391820D01*
Y367030D02*
X883920Y355600D01*
X852680Y430530D02*
X859180D01*
X882441Y439420D02*
X885190D01*
X859180Y430530D02*
X864260Y435610D01*
X878631D02*
X882441Y439420D01*
X864260Y435610D02*
X878631D01*
X892810Y477520D02*
Y495033D01*
X852680Y468630D02*
X883920D01*
X892810Y477520D01*
X764180Y392430D02*
X777240Y405490D01*
Y468270D01*
X764180Y481330D02*
X777240Y468270D01*
X757680Y392430D02*
X764180D01*
X757680Y481330D02*
X764180D01*
X723900Y380170D02*
Y384810D01*
X744220Y405130D01*
X757680D01*
X882650Y349250D02*
X1083310D01*
X860230Y371670D02*
X882650Y349250D01*
X678180Y599440D02*
X678320Y599300D01*
X852680Y455930D02*
X932180D01*
D16*
X980440Y457950D02*
D03*
Y519950D02*
D03*
D17*
X1023260Y511810D02*
D03*
X1041760D02*
D03*
D18*
X892810Y392920D02*
D03*
Y375920D02*
D03*
D19*
X723900Y371670D02*
D03*
Y380170D02*
D03*
D20*
X1084570Y572770D02*
D03*
X1127770D02*
D03*
D21*
X756310Y599440D02*
D03*
X813410D02*
D03*
D22*
X1711620Y455890D02*
D03*
Y460890D02*
D03*
Y470890D02*
D03*
Y465890D02*
D03*
Y450890D02*
D03*
Y445890D02*
D03*
Y440890D02*
D03*
Y435890D02*
D03*
D23*
Y429390D02*
D03*
Y477390D02*
D03*
Y485390D02*
D03*
Y421390D02*
D03*
D24*
X1314450Y523700D02*
D03*
Y454200D02*
D03*
D25*
X1466850Y567695D02*
D03*
X1441450D02*
D03*
X1454150D02*
D03*
X1504950D02*
D03*
X1492250D02*
D03*
X1479550D02*
D03*
X1428750D02*
D03*
D26*
X1466850Y650895D02*
D03*
D27*
X1381760Y570610D02*
D03*
Y562610D02*
D03*
D28*
X1408430Y435820D02*
D03*
Y366820D02*
D03*
D29*
X1096245Y450850D02*
D03*
X1065295D02*
D03*
D30*
X892810Y495033D02*
D03*
Y526046D02*
D03*
D31*
X1656080Y363220D02*
D03*
X1672388D02*
D03*
X1732814D02*
D03*
X1716506D02*
D03*
D32*
X1537970Y486750D02*
D03*
Y465750D02*
D03*
D33*
X1488440Y472191D02*
D03*
Y454909D02*
D03*
D34*
X1097620Y511810D02*
D03*
X1076620D02*
D03*
D35*
X932180Y455770D02*
D03*
Y435770D02*
D03*
D36*
X852680Y392430D02*
D03*
Y405130D02*
D03*
Y430530D02*
D03*
Y455930D02*
D03*
Y468630D02*
D03*
Y481330D02*
D03*
X757680Y392430D02*
D03*
Y405130D02*
D03*
Y430530D02*
D03*
Y443230D02*
D03*
Y455930D02*
D03*
Y468630D02*
D03*
Y481330D02*
D03*
X852680Y443230D02*
D03*
Y417830D02*
D03*
X757680D02*
D03*
D47*
X1722370Y482290D02*
D03*
Y424490D02*
D03*
D48*
X1717370Y496590D02*
D03*
Y410190D02*
D03*
D49*
X1759170Y496590D02*
D03*
Y410190D02*
D03*
D50*
X1626870Y489820D02*
D03*
D51*
Y439820D02*
D03*
D52*
X1670793Y652677D02*
D03*
X1706147Y617323D02*
D03*
X1688470Y635000D02*
D03*
X1728470D02*
D03*
X1670793Y617323D02*
D03*
X1706147Y652677D02*
D03*
D53*
X1688470Y560000D02*
D03*
Y710000D02*
D03*
D54*
X1728470Y560000D02*
D03*
Y710000D02*
D03*
D58*
X1320140Y537166D02*
X1330916D01*
X1314450Y523700D02*
Y531476D01*
X1320140Y537166D01*
X1330916D02*
X1364360Y570610D01*
X1381760D02*
X1391540D01*
X1364360D02*
X1381760D01*
X1314450Y523700D02*
Y529088D01*
X1402080Y521970D02*
X1408430Y515620D01*
X1402080Y521970D02*
Y560070D01*
X1391540Y570610D02*
X1402080Y560070D01*
X1408430Y515620D02*
X1432560D01*
X817215Y569595D02*
X817850Y570230D01*
X770255Y569595D02*
X817215D01*
X817850Y570230D02*
Y595000D01*
X813410Y593720D02*
Y599440D01*
X816830Y596020D02*
X817850Y595000D01*
X816610Y596240D02*
X816830Y596020D01*
X808970Y589280D02*
X813410Y593720D01*
X731520Y530860D02*
X770255Y569595D01*
X1441450Y524510D02*
Y567695D01*
X1432560Y515620D02*
X1441450Y524510D01*
X731520Y486410D02*
Y530860D01*
X817850Y553690D02*
Y570230D01*
X800100Y535940D02*
X817850Y553690D01*
X731520Y486410D02*
X749300Y468630D01*
X757680D01*
X702310Y500380D02*
Y599440D01*
Y500380D02*
X746760Y455930D01*
X757680D01*
X739140Y443230D02*
X757680D01*
X706120Y476250D02*
X739140Y443230D01*
X678320Y483730D02*
Y599300D01*
X731520Y430530D02*
X757680D01*
X678320Y483730D02*
X731520Y430530D01*
D59*
X1314450Y531168D02*
X1322045Y538763D01*
X1314450Y529088D02*
Y531168D01*
X1456441Y454909D02*
X1520129D01*
X1700530Y453698D02*
X1702762Y455930D01*
X1700530Y448380D02*
Y453698D01*
X1702762Y455930D02*
X1707775D01*
X1700530Y448380D02*
X1702695Y446215D01*
X1705610D01*
X1711620Y460890D02*
X1724968D01*
X1711620Y450890D02*
X1724700D01*
X1724968Y460890D02*
X1727200Y458658D01*
Y453390D02*
Y458658D01*
X1724700Y450890D02*
X1727200Y453390D01*
X1423025Y421332D02*
Y425225D01*
X1408430Y435820D02*
X1412430D01*
X1423025Y421332D02*
X1425257Y419100D01*
X1484320D02*
X1520129Y454909D01*
X1412430Y435820D02*
X1423025Y425225D01*
X1425257Y419100D02*
X1484320D01*
X1441450Y469900D02*
X1456441Y454909D01*
X1441450Y469900D02*
Y497840D01*
X1520129Y454909D02*
X1530970Y465750D01*
X1428750Y549910D02*
Y567695D01*
X1414780Y535940D02*
X1428750Y549910D01*
X1462019Y472191D02*
X1488440D01*
X1454150Y480060D02*
Y567695D01*
Y480060D02*
X1462019Y472191D01*
D60*
X1694180Y377190D02*
Y406700D01*
D61*
X1408430Y341630D02*
Y366820D01*
X1626870Y383540D02*
Y439820D01*
X854710Y483060D02*
Y552450D01*
X1361832Y458862D02*
X1381760Y478790D01*
Y514350D01*
X1319112Y458862D02*
X1361832D01*
X1381760Y514350D02*
Y556260D01*
X1537970Y491490D02*
Y505460D01*
X816830Y596020D02*
X834390D01*
X678180Y599440D02*
X702310D01*
X754380D01*
X980440Y523240D02*
Y581660D01*
X1013460D02*
X1038720Y606920D01*
X980440Y581660D02*
X1013460D01*
X834390Y596020D02*
X860670D01*
X834390D02*
Y632460D01*
X869950Y668020D01*
X980440Y607060D02*
X990600D01*
X1007110Y623570D01*
Y657605D01*
X951230Y632460D02*
X980440D01*
X927100Y608330D02*
X951230Y632460D01*
X996695Y668020D02*
X1007110Y657605D01*
X869950Y668020D02*
X996695D01*
X897890Y608330D02*
X927100D01*
X1038720Y606920D02*
Y646430D01*
X1101345Y605790D02*
X1153440D01*
X1090930Y595375D02*
X1101345Y605790D01*
X1090930Y579130D02*
Y595375D01*
X1153440Y605790D02*
X1173620Y625970D01*
X1084570Y572770D02*
X1090930Y579130D01*
X1173620Y625970D02*
Y646430D01*
X860670Y596020D02*
X873760Y582930D01*
X897890D01*
X854710Y622300D02*
X866140Y633730D01*
X897890D01*
X627380Y579260D02*
X647560Y599440D01*
X678180D01*
D62*
X1700530Y505460D02*
X1708150Y513080D01*
X1750060D01*
X1700530Y491490D02*
Y505460D01*
X1706201Y485819D02*
X1711191D01*
X1700530Y491490D02*
X1706201Y485819D01*
D63*
X1694180Y406700D02*
X1708870Y421390D01*
D64*
X1466850Y567695D02*
Y589280D01*
X1635657Y617323D02*
X1670793D01*
X1517650Y735330D02*
X1635657Y617323D01*
X1393190Y735330D02*
X1517650D01*
X1263679Y605818D02*
X1393190Y735330D01*
X1263679Y577822D02*
X1271270Y570230D01*
X1263679Y605818D02*
Y717550D01*
Y577822D02*
Y605818D01*
X1230630Y572770D02*
X1263679Y605818D01*
X1127770Y572770D02*
X1230630D01*
X1123950D02*
X1127770D01*
X1314450Y531168D02*
Y554990D01*
X1271270Y570230D02*
X1299210D01*
X1314450Y554990D01*
X1492250Y535940D02*
Y567695D01*
D65*
X1694180Y429260D02*
X1694245Y429325D01*
X1711555D02*
X1711620Y429390D01*
X1694245Y429325D02*
X1711555D01*
X1696720Y477390D02*
X1711620D01*
D66*
X1263679Y717550D02*
D03*
D67*
X1213679D02*
D03*
D68*
X980440Y632460D02*
D03*
X897890Y633730D02*
D03*
D69*
X980440Y581660D02*
D03*
Y607060D02*
D03*
X897890Y608330D02*
D03*
Y582930D02*
D03*
D70*
X627380Y444360D02*
D03*
Y579260D02*
D03*
X1038720Y646430D02*
D03*
X1173620D02*
D03*
D71*
X627380Y379730D02*
D03*
Y321730D02*
D03*
D72*
X675380Y349730D02*
D03*
D73*
X1408430Y341630D02*
D03*
X1626870Y383540D02*
D03*
X1750060Y513080D02*
D03*
X1466850Y589280D02*
D03*
X911860Y365760D02*
D03*
X731372Y417830D02*
D03*
X1381760Y501650D02*
D03*
X911860Y544830D02*
D03*
X1694180Y377190D02*
D03*
Y429260D02*
D03*
X1696720Y477520D02*
D03*
X1492250Y535940D02*
D03*
X1537970Y505460D02*
D03*
X1441450Y497840D02*
D03*
X1414780Y535940D02*
D03*
X854710Y552450D02*
D03*
X1022350Y488950D02*
D03*
X885190Y439420D02*
D03*
X800100Y535940D02*
D03*
X706120Y476250D02*
D03*
X854710Y622300D02*
D03*
M02*
