G04*
G04 #@! TF.GenerationSoftware,Altium Limited,Altium Designer,26.2.0 (7)*
G04*
G04 Layer_Color=8388736*
%FSLAX44Y44*%
%MOMM*%
G71*
G04*
G04 #@! TF.SameCoordinates,028F03B8-92F7-4845-8BB4-7E4701996D9D*
G04*
G04*
G04 #@! TF.FilePolarity,Negative*
G04*
G01*
G75*
%ADD20R,3.0500X3.6800*%
%ADD21R,1.6500X3.6800*%
%ADD22R,1.1500X0.3000*%
%ADD23R,1.1500X0.6000*%
%ADD24R,1.9000X4.1500*%
%ADD25R,0.9100X2.1600*%
%ADD26R,10.8000X10.4100*%
%ADD27R,0.5000X0.4000*%
%ADD28R,3.3000X2.5000*%
%ADD29R,1.3432X1.8582*%
%ADD30R,2.8062X1.4049*%
%ADD31R,1.1350X1.0621*%
%ADD32R,2.0000X0.6000*%
%ADD33R,1.5562X1.5781*%
%ADD34R,0.9000X1.2000*%
%ADD35R,1.2500X1.0000*%
%ADD37R,3.6532X1.6532*%
%ADD38R,1.2532X1.6532*%
%ADD39R,1.0032X1.1032*%
%ADD40R,0.7532X0.8032*%
G04:AMPARAMS|DCode=41|XSize=0.8032mm|YSize=2.1032mm|CornerRadius=0.1526mm|HoleSize=0mm|Usage=FLASHONLY|Rotation=90.000|XOffset=0mm|YOffset=0mm|HoleType=Round|Shape=RoundedRectangle|*
%AMROUNDEDRECTD41*
21,1,0.8032,1.7980,0,0,90.0*
21,1,0.4980,2.1032,0,0,90.0*
1,1,0.3052,0.8990,0.2490*
1,1,0.3052,0.8990,-0.2490*
1,1,0.3052,-0.8990,-0.2490*
1,1,0.3052,-0.8990,0.2490*
%
%ADD41ROUNDEDRECTD41*%
%ADD42R,1.8032X1.8032*%
%ADD43C,1.8032*%
%ADD44R,1.9032X1.9032*%
%ADD45C,1.9032*%
%ADD46C,2.2532*%
%ADD47C,0.6500*%
G04:AMPARAMS|DCode=48|XSize=1mm|YSize=2.1mm|CornerRadius=0.5mm|HoleSize=0mm|Usage=FLASHONLY|Rotation=90.000|XOffset=0mm|YOffset=0mm|HoleType=Round|Shape=RoundedRectangle|*
%AMROUNDEDRECTD48*
21,1,1.0000,1.1000,0,0,90.0*
21,1,0.0000,2.1000,0,0,90.0*
1,1,1.0000,0.5500,0.0000*
1,1,1.0000,0.5500,0.0000*
1,1,1.0000,-0.5500,0.0000*
1,1,1.0000,-0.5500,0.0000*
%
%ADD48ROUNDEDRECTD48*%
G04:AMPARAMS|DCode=49|XSize=1mm|YSize=1.8mm|CornerRadius=0.5mm|HoleSize=0mm|Usage=FLASHONLY|Rotation=90.000|XOffset=0mm|YOffset=0mm|HoleType=Round|Shape=RoundedRectangle|*
%AMROUNDEDRECTD49*
21,1,1.0000,0.8000,0,0,90.0*
21,1,0.0000,1.8000,0,0,90.0*
1,1,1.0000,0.4000,0.0000*
1,1,1.0000,0.4000,0.0000*
1,1,1.0000,-0.4000,0.0000*
1,1,1.0000,-0.4000,0.0000*
%
%ADD49ROUNDEDRECTD49*%
%ADD50C,1.3000*%
%ADD51R,1.3000X1.3000*%
%ADD52C,2.0000*%
%ADD53C,2.4500*%
%ADD54C,2.8000*%
G04:AMPARAMS|DCode=55|XSize=4.2032mm|YSize=2.0032mm|CornerRadius=0.5516mm|HoleSize=0mm|Usage=FLASHONLY|Rotation=180.000|XOffset=0mm|YOffset=0mm|HoleType=Round|Shape=RoundedRectangle|*
%AMROUNDEDRECTD55*
21,1,4.2032,0.9000,0,0,180.0*
21,1,3.1000,2.0032,0,0,180.0*
1,1,1.1032,-1.5500,0.4500*
1,1,1.1032,1.5500,0.4500*
1,1,1.1032,1.5500,-0.4500*
1,1,1.1032,-1.5500,-0.4500*
%
%ADD55ROUNDEDRECTD55*%
G04:AMPARAMS|DCode=56|XSize=4.2032mm|YSize=2.0032mm|CornerRadius=0.5516mm|HoleSize=0mm|Usage=FLASHONLY|Rotation=270.000|XOffset=0mm|YOffset=0mm|HoleType=Round|Shape=RoundedRectangle|*
%AMROUNDEDRECTD56*
21,1,4.2032,0.9000,0,0,270.0*
21,1,3.1000,2.0032,0,0,270.0*
1,1,1.1032,-0.4500,-1.5500*
1,1,1.1032,-0.4500,1.5500*
1,1,1.1032,0.4500,1.5500*
1,1,1.1032,0.4500,-1.5500*
%
%ADD56ROUNDEDRECTD56*%
%ADD57C,1.4732*%
D20*
X1084570Y572770D02*
D03*
X1127770D02*
D03*
D21*
X756310Y599440D02*
D03*
X813410D02*
D03*
D22*
X1711620Y455890D02*
D03*
Y460890D02*
D03*
Y470890D02*
D03*
Y465890D02*
D03*
Y450890D02*
D03*
Y445890D02*
D03*
Y440890D02*
D03*
Y435890D02*
D03*
D23*
Y429390D02*
D03*
Y477390D02*
D03*
Y485390D02*
D03*
Y421390D02*
D03*
D24*
X1314450Y523700D02*
D03*
Y454200D02*
D03*
D25*
X1466850Y567695D02*
D03*
X1441450D02*
D03*
X1454150D02*
D03*
X1504950D02*
D03*
X1492250D02*
D03*
X1479550D02*
D03*
X1428750D02*
D03*
D26*
X1466850Y650895D02*
D03*
D27*
X1381760Y570610D02*
D03*
Y562610D02*
D03*
D28*
X1408430Y435820D02*
D03*
Y366820D02*
D03*
D29*
X1096245Y450850D02*
D03*
X1065295D02*
D03*
D30*
X892810Y495033D02*
D03*
Y526046D02*
D03*
D31*
X1656080Y363220D02*
D03*
X1672388D02*
D03*
X1732814D02*
D03*
X1716506D02*
D03*
D32*
X1537970Y486750D02*
D03*
Y465750D02*
D03*
D33*
X1488440Y472191D02*
D03*
Y454909D02*
D03*
D34*
X1097620Y511810D02*
D03*
X1076620D02*
D03*
D35*
X932180Y455770D02*
D03*
Y435770D02*
D03*
D37*
X980440Y457950D02*
D03*
Y519950D02*
D03*
D38*
X1023260Y511810D02*
D03*
X1041760D02*
D03*
D39*
X892810Y392920D02*
D03*
Y375920D02*
D03*
D40*
X723900Y371670D02*
D03*
Y380170D02*
D03*
D41*
X852680Y392430D02*
D03*
Y405130D02*
D03*
Y430530D02*
D03*
Y455930D02*
D03*
Y468630D02*
D03*
Y481330D02*
D03*
X757680Y392430D02*
D03*
Y405130D02*
D03*
Y430530D02*
D03*
Y443230D02*
D03*
Y455930D02*
D03*
Y468630D02*
D03*
Y481330D02*
D03*
X852680Y443230D02*
D03*
Y417830D02*
D03*
X757680D02*
D03*
D42*
X1263679Y717550D02*
D03*
D43*
X1213679D02*
D03*
D44*
X980440Y632460D02*
D03*
X897890Y633730D02*
D03*
D45*
X980440Y581660D02*
D03*
Y607060D02*
D03*
X897890Y608330D02*
D03*
Y582930D02*
D03*
D46*
X627380Y444360D02*
D03*
Y579260D02*
D03*
X1038720Y646430D02*
D03*
X1173620D02*
D03*
D47*
X1722370Y482290D02*
D03*
Y424490D02*
D03*
D48*
X1717370Y496590D02*
D03*
Y410190D02*
D03*
D49*
X1759170Y496590D02*
D03*
Y410190D02*
D03*
D50*
X1626870Y489820D02*
D03*
D51*
Y439820D02*
D03*
D52*
X1670793Y652677D02*
D03*
X1706147Y617323D02*
D03*
X1688470Y635000D02*
D03*
X1728470D02*
D03*
X1670793Y617323D02*
D03*
X1706147Y652677D02*
D03*
D53*
X1688470Y560000D02*
D03*
Y710000D02*
D03*
D54*
X1728470Y560000D02*
D03*
Y710000D02*
D03*
D55*
X627380Y379730D02*
D03*
Y321730D02*
D03*
D56*
X675380Y349730D02*
D03*
D57*
X1408430Y341630D02*
D03*
X1626870Y383540D02*
D03*
X1750060Y513080D02*
D03*
X1466850Y589280D02*
D03*
X911860Y365760D02*
D03*
X731372Y417830D02*
D03*
X1381760Y501650D02*
D03*
X911860Y544830D02*
D03*
X1694180Y377190D02*
D03*
Y429260D02*
D03*
X1696720Y477520D02*
D03*
X1492250Y535940D02*
D03*
X1537970Y505460D02*
D03*
X1441450Y497840D02*
D03*
X1414780Y535940D02*
D03*
X854710Y552450D02*
D03*
X1022350Y488950D02*
D03*
X885190Y439420D02*
D03*
X800100Y535940D02*
D03*
X706120Y476250D02*
D03*
X854710Y622300D02*
D03*
M02*
