M48
;Layer_Color=9474304
;FILE_FORMAT=4:4
METRIC,LZ
;TYPE=PLATED
T02F00S00C0.7112
T03F00S00C0.8000
T05F00S00C1.1000
T06F00S00C1.3000
T07F00S00C1.5500
;TYPE=NON_PLATED
T08F00S00C0.6500
T09F00S00C2.4500
T10F00S00C2.8000
%
T02
X0091186Y0036576
X0140843Y0034163
X0162687Y0038354
X0169418Y0037719
Y0042926
X0169672Y0047752
X0175006Y0051308
X0153797Y0050546
X0149225Y0053594
X0141478
X0144145Y0049784
X0138176Y0050165
X0146685Y0058928
X0102235Y0048895
X0091186Y0054483
X0085471Y0055245
Y006223
X008001Y0053594
X0088519Y0043942
X00731372Y0041783
X0070612Y0047625
T03
X0162687Y0043982
Y0048982
T05
X01213679Y0071755
X01263679
X0098044Y0063246
Y0060706
Y0058166
X0089789Y0058293
Y0060833
Y0063373
T06
X01670793Y00617323
Y00652677
X0168847Y00635
X01706147Y00617323
Y00652677
X0172847Y00635
T07
X0103872Y0064643
X0117362
X0062738Y0057926
Y0044436
T08
X0172237Y0042449
Y0048229
T09
X0168847Y0056
Y0071
T10
X0172847Y0056
Y0071
M30
